PathFileType	3	(X/Y/Z)	D:\Vicon Setup\UG\Test1\New Session\NewSession15.trc
DataRate	CameraRate	NumFrames	NumMarkers	Units	OrigDataRate	OrigDataStartFrame	OrigNumFrames
100.0	100.0	11	27	mm	100.0	316	359	
Frame#	Time	Sternum			LShoulder			RShoulder			LASIS			RASIS			RPSIS			LPSIS			RKneeLateral			RKneeMedial			RFibulaHead			RMidShank			RAnkleLateral			RAnkleMedial			RHeel			RMT5			RMT2			RToe			LKneeLateral			LKneeMedial			LFibulaHead			LMidShank			LAnkleLateral			LAnkleMedial			LHeel			LMT5			LMT2			LToe			
		X1	Y1	Z1	X2	Y2	Z2	X3	Y3	Z3	X4	Y4	Z4	X5	Y5	Z5	X6	Y6	Z6	X7	Y7	Z7	X8	Y8	Z8	X9	Y9	Z9	X10	Y10	Z10	X11	Y11	Z11	X12	Y12	Z12	X13	Y13	Z13	X14	Y14	Z14	X15	Y15	Z15	X16	Y16	Z16	X17	Y17	Z17	X18	Y18	Z18	X19	Y19	Z19	X20	Y20	Z20	X21	Y21	Z21	X22	Y22	Z22	X23	Y23	Z23	X24	Y24	Z24	X25	Y25	Z25	X26	Y26	Z26	X27	Y27	Z27	
316	3.15	-239.04041	1280.9585	-3947.1023	-40.321838	1368.1389	-4012.9561	-416.71658	1361.2151	-4015.6184	-121.5774	940.4209	-4078.2705	-380.75357	950.84369	-4091.0254	-303.24908	997.25104	-4258.187	-171.37305	1004.0129	-4252.8506	-407.78217	489.9946	-4114.9829	-276.87491	461.99109	-4087.1816	-413.8804	438.17508	-4155.8052	-327.20068	335.88159	-4276.083	-382.04471	293.23474	-4480.1982	-308.11023	258.64786	-4425.8931	-312.12534	340.19775	-4522.9761	-423.97137	131.59125	-4484.3252	-364.03354	138.92548	-4448.4575	-372.10172	96.176888	-4438.688	-128.59737	476.0105	-4063.1052	-255.8266	477.49091	-4075.8096	-126.24952	416.22815	-4086.7744	-226.86493	273.4285	-4121.7227	-182.46394	99.936409	-4242.9854	-269.24207	116.16769	-4203.186	-245.69672	67.263191	-4321.084	-144.29649	37.110672	-4118.272	-211.35612	54.208424	-4097.9224	-216.24347	40.423149	-4055.9016
317	3.16	-240.09888	1279.077	-3926.8779	-40.044254	1365.6433	-3990.948	-416.27533	1360.2646	-3997.0164	-121.86866	937.78107	-4058.4106	-380.79675	949.29718	-4070.7117	-302.96451	998.36969	-4236.8521	-171.75471	1003.8088	-4231.6045	-409.9234	491.49435	-4077.5298	-278.84766	464.28989	-4049.5085	-415.70108	440.10403	-4116.8345	-330.14404	335.92133	-4238.0879	-382.96017	290.09845	-4438.4058	-309.77121	256.42819	-4383.0835	-312.94894	334.83151	-4483.8716	-426.74155	129.27957	-4435.6724	-366.38831	137.42467	-4400.561	-375.03815	95.275917	-4389.0298	-128.00404	471.92175	-4053.7061	-255.71364	471.87454	-4058.4207	-126.00608	412.67227	-4078.3191	-227.30232	271.34265	-4116.3735	-183.19182	101.08638	-4242.2739	-270.32559	116.48456	-4201.708	-246.42844	68.562332	-4320.394	-144.53566	36.940338	-4118.6499	-211.49335	53.88707	-4097.6816	-216.27713	39.966698	-4055.6475
318	3.17	-241.03096	1280.647	-3906.0171	-39.766289	1364.8035	-3968.5974	-416.25436	1360.5	-3978.7959	-122.05578	936.86249	-4036.8333	-381.3616	949.87372	-4047.9521	-302.16608	1002.1477	-4214.2881	-171.52994	1004.0654	-4210.0205	-412.02252	494.18066	-4040.5454	-281.86914	467.75452	-4013.2727	-417.23541	443.1207	-4078.2061	-332.39645	336.42517	-4194.3945	-383.46106	285.5553	-4396.3125	-310.73105	253.87541	-4339.6255	-313.34653	327.56284	-4444.1958	-429.27975	125.75957	-4386.1938	-368.93585	134.95497	-4351.1885	-378.13922	93.469223	-4337.6055	-127.08679	468.9024	-4046.4937	-255.33905	465.81656	-4044.7288	-125.39418	409.72931	-4072.1121	-226.94479	269.6759	-4111.0435	-183.19524	102.76945	-4240.687	-270.74435	117.19624	-4199.8945	-246.62114	70.22113	-4319.5938	-144.60274	36.710117	-4118.583	-211.35585	53.688148	-4097.3633	-216.20973	39.554672	-4055.5129
319	3.18	-241.79211	1283.6432	-3884.7275	-39.849018	1365.6562	-3945.9287	-416.56885	1361.8981	-3960.697	-122.66963	937.26782	-4015.6575	-380.95593	951.61346	-4027.832	-301.69333	1005.4716	-4190.5654	-171.02509	1004.8391	-4188.0898	-413.73709	499.06686	-4004.6821	-283.34061	471.87039	-3977.9377	-418.69034	447.38452	-4040.2383	-334.28088	334.82175	-4152.8228	-383.34836	278.9874	-4353.2651	-312.008	249.59148	-4295.103	-313.03665	318.03439	-4403.7983	-431.45593	120.99638	-4335.0986	-371.23425	131.69106	-4300.4043	-381.09268	91.28936	-4284.5845	-125.93283	466.85138	-4040.2732	-253.96938	461.84491	-4034.7461	-125.01231	408.19501	-4066.8196	-226.19814	268.67798	-4106.0615	-183.4579	103.865	-4239.0322	-270.74432	118.34665	-4198.1274	-246.35104	72.854935	-4318.6489	-144.44923	36.289501	-4118.8027	-211.03093	53.55537	-4097.084	-216.04895	39.302113	-4055.3599
320	3.19	-242.85968	1287.116	-3863.52	-40.304733	1368.006	-3922.969	-417.10583	1364.5262	-3942.8445	-123.05494	938.31415	-3994.0713	-380.7981	955.1803	-4006.1941	-301.98602	1008.1556	-4167.3438	-170.33981	1006.1954	-4165.8477	-415.29263	505.1871	-3969.771	-285.85876	478.80484	-3943.0708	-420.01025	452.52374	-4003.1924	-336.13571	335.47043	-4112.6831	-383.8031	271.96783	-4310.4321	-312.67542	244.58118	-4250.1094	-312.63724	306.46219	-4362.9414	-433.68591	115.8176	-4282.4536	-373.20554	127.97718	-4248.2275	-383.38696	88.573624	-4229.877	-125.62959	465.96472	-4034.2646	-253.39925	460.6904	-4027.135	-124.95806	408.50516	-4061.9163	-225.56039	268.73773	-4101.5562	-183.28099	105.78802	-4237.2808	-270.68036	118.41173	-4197.9307	-246.04254	76.260376	-4317.6021	-144.41904	35.856525	-4119.0078	-210.70639	53.410927	-4096.6875	-215.95546	39.108589	-4055.2729
321	3.2	-244.48047	1290.9689	-3842.6201	-41.130413	1371.5145	-3899.8499	-417.50735	1368.0699	-3925.1272	-122.50237	940.09564	-3970.5107	-380.64334	959.65442	-3983.8955	-301.91235	1010.406	-4145.4424	-169.66568	1008.1152	-4143.3486	-416.45435	512.20178	-3936.2312	-288.21408	486.85034	-3909.1067	-421.26154	458.26645	-3967.4316	-336.60736	336.14279	-4070.5518	-382.89694	262.00156	-4265.8457	-312.858	238.83151	-4204.5283	-312.20212	293.08139	-4321.3833	-435.23883	110.04457	-4228.1362	-374.52039	123.7318	-4194.769	-385.0018	85.643387	-4173.8154	-125.88348	466.87411	-4028.5784	-253.93161	462.08063	-4020.7153	-125.41904	410.29343	-4057.229	-225.61176	270.17465	-4097.6143	-183.29919	108.35571	-4235.2373	-270.63144	120.4981	-4195.6001	-245.81979	80.773552	-4315.9302	-144.75093	35.695705	-4118.5312	-210.37224	53.312218	-4095.9688	-215.96031	38.954189	-4055.1782
322	3.21	-246.3669	1295.0933	-3821.9402	-42.112118	1376.2435	-3876.4678	-418.41025	1372.0878	-3906.8083	-122.75112	941.5271	-3949.97	-380.34094	964.85938	-3961.0945	-300.51535	1013.4246	-4123.5029	-169.0303	1010.659	-4120.5005	-417.78918	519.81396	-3903.9832	-290.23404	495.73605	-3876.2908	-422.36346	464.00656	-3933.0061	-337.17621	336.36426	-4029.8232	-382.76227	252.04852	-4221.3237	-312.65057	232.33598	-4158.3296	-311.74277	278.11353	-4278.9463	-436.07248	103.3276	-4172.1694	-375.25623	119.04329	-4140.3276	-386.33286	83.144638	-4115.8853	-126.72065	469.67725	-4022.4219	-255.11726	464.95486	-4015.0146	-126.30603	413.41995	-4052.2251	-225.97487	273.8114	-4092.7988	-183.3943	112.00988	-4232.5732	-270.55643	123.25412	-4192.8071	-245.31099	87.042152	-4313.4927	-144.32512	35.639004	-4118.5142	-210.28929	53.014149	-4094.7305	-216.27425	38.850037	-4054.5044
323	3.22	-248.33084	1300.0234	-3800.8442	-43.381916	1381.7046	-3852.7952	-419.22372	1376.7329	-3888.1968	-123.04688	944.47595	-3926.5168	-379.95514	970.59888	-3937.7275	-299.34491	1016.7316	-4101.4404	-168.55844	1013.8426	-4097.2285	-419.19135	527.40601	-3872.4417	-291.93237	504.85898	-3844.6548	-423.6937	469.55389	-3899.9131	-337.62247	336.36847	-3989.7751	-382.29318	240.44284	-4175.728	-312.58041	224.96263	-4109.9077	-311.2821	261.83377	-4235.1855	-436.7132	96.701866	-4115.7734	-375.55841	114.16777	-4085.1641	-386.28189	80.116112	-4058.4026	-128.06595	474.26236	-4015.2988	-256.8075	469.1907	-4009.5186	-127.40511	417.98401	-4046.2532	-226.20529	277.77673	-4087.656	-183.40865	116.45222	-4228.9761	-269.70581	126.86336	-4188.8379	-244.7357	94.571342	-4310.2451	-143.82094	35.860264	-4118.0498	-210.42096	52.195934	-4093.8911	-216.44855	38.554096	-4054.6965
324	3.23	-250.35567	1306.0343	-3779.2104	-44.807652	1387.9271	-3829.0608	-420.01071	1382.1085	-3869.4021	-123.33269	948.04779	-3902.7429	-379.62518	976.67297	-3914.2378	-298.81897	1020.1551	-4079.0305	-168.26622	1017.681	-4073.3708	-420.55356	534.70624	-3841.6069	-293.09467	513.98639	-3812.5811	-424.79941	473.9744	-3867.9373	-337.85114	336.1113	-3949.6052	-381.75079	227.95137	-4129.3906	-312.39868	217.26016	-4062.4895	-310.65991	244.82793	-4190.311	-436.67136	89.483124	-4058.8289	-375.56604	109.14452	-4029.4624	-386.1376	77.041298	-4000.3948	-129.70595	479.59399	-4006.7124	-258.63022	474.29642	-4003.3125	-128.50243	423.96735	-4039.0806	-226.58128	283.3801	-4082.0779	-183.18854	121.63834	-4224.2886	-268.89658	131.32466	-4183.2529	-243.8981	103.49385	-4306.0029	-143.29218	36.462563	-4116.5479	-210.35274	51.886753	-4092.0095	-216.66238	38.707527	-4054.1521
325	3.24	-252.42278	1312.892	-3757.3174	-46.322418	1394.6935	-3805.1028	-421.09265	1387.6843	-3850.0173	-123.86357	952.06195	-3878.6416	-379.58786	982.98438	-3890.4424	-298.69098	1024.0824	-4055.9338	-168.27744	1022.106	-4048.9106	-422.42795	542.01355	-3812.4927	-295.25781	522.26221	-3784.2681	-425.61917	477.35324	-3836.9956	-338.04272	335.50146	-3909.8489	-381.12982	214.67519	-4081.9612	-312.54895	207.55869	-4017.2139	-310.15027	227.39383	-4144.231	-436.17215	81.942551	-4001.5098	-375.26743	104.33506	-3973.4539	-385.85742	74.686356	-3942.4092	-131.40804	485.21201	-3996.4807	-260.39087	480.16678	-3995.8101	-129.51016	430.56836	-4030.4541	-226.6649	289.67422	-4075.0742	-180.64001	129.28677	-4219.0127	-267.81317	136.9586	-4177.0332	-242.86829	113.82754	-4300.3267	-143.41824	35.867466	-4115.6392	-210.37993	51.560677	-4089.9163	-217.10553	38.340103	-4053.9326
326	3.25	-254.66844	1319.9994	-3735.2993	-48.149609	1401.6667	-3781.2554	-422.14383	1393.7217	-3830.5369	-124.30501	956.78571	-3854.4473	-379.74747	989.11896	-3866.5352	-298.65576	1028.8358	-4031.9685	-168.53542	1026.9402	-4023.9443	-424.18179	548.43427	-3784.7974	-297.02121	529.72046	-3755.7676	-427.57486	480.96722	-3807.478	-338.34479	334.5289	-3870.8101	-380.71979	200.674	-4033.6228	-312.19125	199.73708	-3968.5312	-309.80081	209.5811	-4096.4429	-434.68149	73.841759	-3943.2693	-374.56046	99.744644	-3917.0405	-384.84473	72.525085	-3883.7676	-132.57314	491.19089	-3984.8655	-261.98376	486.49011	-3986.574	-129.94734	437.85541	-4020.2903	-225.74493	296.49332	-4065.9346	-180.48524	135.22682	-4211.2334	-266.39703	142.82845	-4169.8623	-241.64064	125.65094	-4292.9365	-143.39709	35.886707	-4113.8618	-210.13358	50.907768	-4087.1121	-217.38834	38.200157	-4053.854
